<svg xmlns="http://www.w3.org/2000/svg" width="100%" height="100%" viewBox="0 0 400 280" stroke="#000">
    <title>Entrelibros Logo</title>

    <g class="principalLines">
        <!-- LEFT -->
        <polyline points="25,60, 24.5,70 15,250 50,210 55,35 25,60 24.5,70" stroke-width="5" fill="transparent"/>
        
        <!-- CENTER -->
        <line x1="200" x2="185" y1="60" y2="220" stroke-width="5"/>

        <!-- RIGHT -->
        <polyline points="350,50 350,55 350,210 375,255 380,85 350,50 350,55" stroke-width="5" fill="transparent"/>
        <path d="M55,35  Q60,25  T200,60" stroke-width="5"/>
    </g>
    <g class="topCurves">
        <!-- LEFT -->
        <path d="M 55 34 C 80 20, 130 30 202 60" fill="transparent" stroke-width="5"/>

        <!-- RIGHT -->
        <path d="M 202 60 C 210 50, 300 30 350 48 12 254" fill="transparent" stroke-width="5"/>
    </g>
    <g class="bottomCurves">
        <!-- LEFT -->
        <path d="M 13 253 C 80 230, 130 230 160 240" fill="transparent" stroke-width="5"/>
        <path d="M 50 210 C 80 200, 130 200 185 220" fill="transparent" stroke-width="5"/>

        <!-- CENTER -->
        <path d="M 160 240 C 170 260, 190 260 210 240" fill="transparent" stroke-width="5"/>
        <path d="M 160 242 C 180 215, 190 215 210 242" fill="transparent" stroke-width="5"/>
        
        <!-- RIGHT -->
        <path d="M 210 240 C 230 230, 260 230 377 260 12 254" fill="transparent" stroke-width="5"/>
        <path d="M 185 220 C 210 210, 300 190 350 210 12 254" fill="transparent" stroke-width="5"/>
    </g>
    <g class="letter">
        <!-- E -->
        <path d="M 140 90 C 100 80, 90 170 130 160" fill="transparent" stroke-width="5"/>
        <line x1="106" x2="130" y1="128" y2="130" stroke-width="5" />

        <!-- L -->
        <path d="M 260 90 Q 270 100, 270 130 T 280 170" stroke-width="5" fill="transparent"/>
    </g>
</svg>